<svg
    class="mylogo"
    version="1.1"
    xmlns="http://www.w3.org/2000/svg"
    x="0px"
    y="0px"
    viewBox="0 0 552.39 560"
    style="fill:white;enable-background:new 0 0 552.39 560;"
    xml:space="preserve"
>
<path d="M356.65,279.57l195.74-92.06S490.15,0,288.23,0C162,0,88.27,84.29,88,84.44L33.17,22.17H0v517.4H40.88l47.89-63.05c-.5.62,76.27,86.41,199.12,83.4,211.32-5.18,264.5-188.2,264.5-188.2ZM308.76,53.87A226.14,226.14,0,0,1,478.51,155.2L308.76,235.06ZM62.1,279.92c0-111.38,80.2-204,186-223.19V503.19C142.3,484,62.1,391.3,62.1,279.92ZM308.76,506.05v-182l170.18,80A226.53,226.53,0,0,1,308.76,506.05Z" />
</svg>